<?xml version="1.0" encoding="UTF-8" standalone="no"?>
<!DOCTYPE svg PUBLIC "-//W3C//DTD SVG 1.1//EN"
 "http://www.w3.org/Graphics/SVG/1.1/DTD/svg11.dtd">
<!-- Generated by graphviz version 2.38.0 (20140413.2041)
 -->
<!-- Title: trace Pages: 1 -->
<svg width="1238pt" height="672pt"
 viewBox="0.00 0.00 1237.53 672.00" xmlns="http://www.w3.org/2000/svg" xmlns:xlink="http://www.w3.org/1999/xlink">
<g id="graph0" class="graph" transform="scale(1 1) rotate(0) translate(4 668)">
<title>trace</title>
<polygon fill="white" stroke="none" points="-4,4 -4,-668 1233.53,-668 1233.53,4 -4,4"/>
<g id="clust1" class="cluster"><title>cluster_4323</title>
<polygon fill="none" stroke="#608686" points="83.5285,-168 83.5285,-248 377.529,-248 377.529,-168 83.5285,-168"/>
<text text-anchor="middle" x="230.529" y="-236" font-family="Times,serif" font-size="10.00">4323</text>
<text text-anchor="middle" x="230.529" y="-226" font-family="Times,serif" font-size="10.00">[TWTC &#45; tw telecom holdings, inc.,US]</text>
</g>
<g id="clust2" class="cluster"><title>cluster_132132</title>
<polygon fill="none" stroke="#60baba" points="883.529,-488 883.529,-568 1144.53,-568 1144.53,-488 883.529,-488"/>
<text text-anchor="middle" x="1014.03" y="-556" font-family="Times,serif" font-size="10.00">132132</text>
<text text-anchor="middle" x="1014.03" y="-546" font-family="Times,serif" font-size="10.00">[REPUBLICTELECOM&#45;SG MyRepublic Ltd.,SG]</text>
</g>
<g id="clust3" class="cluster"><title>cluster_56300</title>
<polygon fill="none" stroke="#60ffff" points="1010.53,-400 1010.53,-480 1202.53,-480 1202.53,-400 1010.53,-400"/>
<text text-anchor="middle" x="1106.53" y="-468" font-family="Times,serif" font-size="10.00">56300</text>
<text text-anchor="middle" x="1106.53" y="-458" font-family="Times,serif" font-size="10.00">[MYHOSTING&#45;AS&#45;AP MYHOSTING,SG]</text>
</g>
<g id="clust4" class="cluster"><title>cluster_4565</title>
<polygon fill="none" stroke="#868660" points="1001.53,-576 1001.53,-656 1221.53,-656 1221.53,-576 1001.53,-576"/>
<text text-anchor="middle" x="1111.53" y="-644" font-family="Times,serif" font-size="10.00">4565</text>
<text text-anchor="middle" x="1111.53" y="-634" font-family="Times,serif" font-size="10.00">[MEGAPATH2&#45;US &#45; MegaPath Networks Inc.,US]</text>
</g>
<g id="clust5" class="cluster"><title>cluster_3257</title>
<polygon fill="none" stroke="#86ba86" points="834.529,-256 834.529,-480 1002.53,-480 1002.53,-256 834.529,-256"/>
<text text-anchor="middle" x="918.529" y="-468" font-family="Times,serif" font-size="10.00">3257</text>
<text text-anchor="middle" x="918.529" y="-458" font-family="Times,serif" font-size="10.00">[TINET&#45;BACKBONE Tinet SpA,DE]</text>
</g>
<g id="clust6" class="cluster"><title>cluster_17338</title>
<polygon fill="none" stroke="#86ffba" points="21.5285,-80 21.5285,-160 485.529,-160 485.529,-80 21.5285,-80"/>
<text text-anchor="middle" x="253.529" y="-148" font-family="Times,serif" font-size="10.00">17338</text>
<text text-anchor="middle" x="253.529" y="-138" font-family="Times,serif" font-size="10.00">[AS17338 &#45; AOScloud, LLC.,US]</text>
</g>
<g id="clust7" class="cluster"><title>cluster_3356</title>
<polygon fill="none" stroke="#8660ff" points="493.529,-8 493.529,-248 989.529,-248 989.529,-8 493.529,-8"/>
<text text-anchor="middle" x="741.529" y="-236" font-family="Times,serif" font-size="10.00">3356</text>
<text text-anchor="middle" x="741.529" y="-226" font-family="Times,serif" font-size="10.00">[LEVEL3 &#45; Level 3 Communications, Inc.,US]</text>
</g>
<!-- 207.250.67.110 -->
<g id="node1" class="node"><title>207.250.67.110</title>
<ellipse fill="#608686" stroke="black" cx="304.529" cy="-194" rx="65.1093" ry="18"/>
<text text-anchor="middle" x="304.529" y="-189.8" font-family="Times,serif" font-size="14.00">207.250.67.110</text>
</g>
<!-- 68.66.15.90 -->
<g id="node10" class="node"><title>68.66.15.90</title>
<ellipse fill="#86ffba" stroke="black" cx="81.5285" cy="-106" rx="52.2268" ry="18"/>
<text text-anchor="middle" x="81.5285" y="-101.8" font-family="Times,serif" font-size="14.00">68.66.15.90</text>
</g>
<!-- 207.250.67.110&#45;&gt;68.66.15.90 -->
<g id="edge14" class="edge"><title>207.250.67.110&#45;&gt;68.66.15.90</title>
<path fill="none" stroke="#a07070" d="M268.493,-178.933C256.573,-174.793 243.133,-170.663 230.529,-168 192.104,-159.881 178.655,-175.402 142.529,-160 127.22,-153.473 113,-141.615 102.148,-130.768"/>
<polygon fill="#a07070" stroke="#a07070" points="104.64,-128.309 95.201,-123.498 99.5792,-133.146 104.64,-128.309"/>
</g>
<!-- 206.222.122.50 -->
<g id="node2" class="node"><title>206.222.122.50</title>
<ellipse fill="#608686" stroke="black" cx="156.529" cy="-194" rx="65.2572" ry="18"/>
<text text-anchor="middle" x="156.529" y="-189.8" font-family="Times,serif" font-size="14.00">206.222.122.50</text>
</g>
<!-- 4.68.71.102 -->
<g id="node18" class="node"><title>4.68.71.102</title>
<ellipse fill="#8660ff" stroke="black" cx="807.529" cy="-194" rx="52.2268" ry="18"/>
<text text-anchor="middle" x="807.529" y="-189.8" font-family="Times,serif" font-size="14.00">4.68.71.102</text>
</g>
<!-- 206.222.122.50&#45;&gt;4.68.71.102 -->
<g id="edge11" class="edge"><title>206.222.122.50&#45;&gt;4.68.71.102</title>
<path fill="none" stroke="#a07070" d="M172.945,-211.609C188.389,-226.533 213.046,-246.38 239.529,-252 253.06,-254.872 723.997,-254.872 737.529,-252 757.532,-247.755 775.219,-232.949 787.81,-219.36"/>
<polygon fill="#a07070" stroke="#a07070" points="790.659,-221.419 794.613,-211.589 785.392,-216.808 790.659,-221.419"/>
</g>
<!-- 103.6.148.45 -->
<g id="node3" class="node"><title>103.6.148.45</title>
<ellipse fill="#60baba" stroke="black" cx="948.529" cy="-514" rx="56.5701" ry="18"/>
<text text-anchor="middle" x="948.529" y="-509.8" font-family="Times,serif" font-size="14.00">103.6.148.45</text>
</g>
<!-- 183.182.80.69 -->
<g id="node7" class="node"><title>183.182.80.69</title>
<ellipse fill="#86ba86" stroke="black" cx="932.529" cy="-426" rx="60.9135" ry="18"/>
<text text-anchor="middle" x="932.529" y="-421.8" font-family="Times,serif" font-size="14.00">183.182.80.69</text>
</g>
<!-- 103.6.148.45&#45;&gt;183.182.80.69 -->
<g id="edge4" class="edge"><title>103.6.148.45&#45;&gt;183.182.80.69</title>
<path fill="none" stroke="#a07070" d="M945.367,-496.009C943.147,-484.073 940.129,-467.853 937.577,-454.138"/>
<polygon fill="#a07070" stroke="#a07070" points="941.008,-453.441 935.738,-444.25 934.126,-454.721 941.008,-453.441"/>
</g>
<!-- 103.6.148.46 -->
<g id="node4" class="node"><title>103.6.148.46</title>
<ellipse fill="#60baba" stroke="black" cx="1079.53" cy="-514" rx="56.5701" ry="18"/>
<text text-anchor="middle" x="1079.53" y="-509.8" font-family="Times,serif" font-size="14.00">103.6.148.46</text>
</g>
<!-- 103.224.165.1 -->
<g id="node5" class="node"><title>103.224.165.1</title>
<ellipse fill="#60ffff" stroke="black" cx="1079.53" cy="-426" rx="60.9135" ry="18"/>
<text text-anchor="middle" x="1079.53" y="-421.8" font-family="Times,serif" font-size="14.00">103.224.165.1</text>
</g>
<!-- 103.6.148.46&#45;&gt;103.224.165.1 -->
<g id="edge2" class="edge"><title>103.6.148.46&#45;&gt;103.224.165.1</title>
<path fill="none" stroke="#a07070" d="M1079.53,-495.597C1079.53,-483.746 1079.53,-467.817 1079.53,-454.292"/>
<polygon fill="#a07070" stroke="#a07070" points="1083.03,-454.084 1079.53,-444.084 1076.03,-454.084 1083.03,-454.084"/>
</g>
<!-- 103.224.165.1&#45;&gt;103.6.148.45 -->
<g id="edge3" class="edge"><title>103.224.165.1&#45;&gt;103.6.148.45</title>
<path fill="none" stroke="#a07070" d="M1058.88,-442.936C1044.49,-453.803 1024.69,-468.289 1006.53,-480 999.682,-484.414 992.221,-488.892 985,-493.067"/>
<polygon fill="#a07070" stroke="#a07070" points="983.004,-490.176 976.045,-498.165 986.467,-496.259 983.004,-490.176"/>
</g>
<!-- 192.168.1.1 -->
<g id="node6" class="node"><title>192.168.1.1</title>
<ellipse fill="#868660" stroke="black" cx="1079.53" cy="-602" rx="52.2268" ry="18"/>
<text text-anchor="middle" x="1079.53" y="-597.8" font-family="Times,serif" font-size="14.00">192.168.1.1</text>
</g>
<!-- 192.168.1.1&#45;&gt;103.6.148.46 -->
<g id="edge1" class="edge"><title>192.168.1.1&#45;&gt;103.6.148.46</title>
<path fill="none" stroke="#a07070" d="M1079.53,-583.597C1079.53,-571.746 1079.53,-555.817 1079.53,-542.292"/>
<polygon fill="#a07070" stroke="#a07070" points="1083.03,-542.084 1079.53,-532.084 1076.03,-542.084 1083.03,-542.084"/>
</g>
<!-- 173.205.57.82 -->
<g id="node8" class="node"><title>173.205.57.82</title>
<ellipse fill="#86ba86" stroke="black" cx="930.529" cy="-354" rx="60.9135" ry="18"/>
<text text-anchor="middle" x="930.529" y="-349.8" font-family="Times,serif" font-size="14.00">173.205.57.82</text>
</g>
<!-- 183.182.80.69&#45;&gt;173.205.57.82 -->
<g id="edge5" class="edge"><title>183.182.80.69&#45;&gt;173.205.57.82</title>
<path fill="none" stroke="#a07070" d="M932.034,-407.697C931.814,-399.983 931.549,-390.712 931.303,-382.112"/>
<polygon fill="#a07070" stroke="#a07070" points="934.801,-382 931.017,-372.104 927.804,-382.2 934.801,-382"/>
</g>
<!-- 141.136.109.21 -->
<g id="node9" class="node"><title>141.136.109.21</title>
<ellipse fill="#86ba86" stroke="black" cx="929.529" cy="-282" rx="65.2572" ry="18"/>
<text text-anchor="middle" x="929.529" y="-277.8" font-family="Times,serif" font-size="14.00">141.136.109.21</text>
</g>
<!-- 173.205.57.82&#45;&gt;141.136.109.21 -->
<g id="edge6" class="edge"><title>173.205.57.82&#45;&gt;141.136.109.21</title>
<path fill="none" stroke="#a07070" d="M930.281,-335.697C930.171,-327.983 930.039,-318.712 929.916,-310.112"/>
<polygon fill="#a07070" stroke="#a07070" points="933.415,-310.053 929.773,-300.104 926.416,-310.153 933.415,-310.053"/>
</g>
<!-- 4.69.153.25 -->
<g id="node17" class="node"><title>4.69.153.25</title>
<ellipse fill="#8660ff" stroke="black" cx="929.529" cy="-194" rx="52.2268" ry="18"/>
<text text-anchor="middle" x="929.529" y="-189.8" font-family="Times,serif" font-size="14.00">4.69.153.25</text>
</g>
<!-- 141.136.109.21&#45;&gt;4.69.153.25 -->
<g id="edge7" class="edge"><title>141.136.109.21&#45;&gt;4.69.153.25</title>
<path fill="none" stroke="#a07070" d="M929.529,-263.597C929.529,-251.746 929.529,-235.817 929.529,-222.292"/>
<polygon fill="#a07070" stroke="#a07070" points="933.029,-222.084 929.529,-212.084 926.029,-222.084 933.029,-222.084"/>
</g>
<!-- 4.69.132.62 -->
<g id="node13" class="node"><title>4.69.132.62</title>
<ellipse fill="#8660ff" stroke="black" cx="553.529" cy="-194" rx="52.2268" ry="18"/>
<text text-anchor="middle" x="553.529" y="-189.8" font-family="Times,serif" font-size="14.00">4.69.132.62</text>
</g>
<!-- 68.66.15.90&#45;&gt;4.69.132.62 -->
<g id="edge15" class="edge"><title>68.66.15.90&#45;&gt;4.69.132.62</title>
<path fill="none" stroke="#a07070" d="M94.8481,-123.541C106.07,-136.102 123.334,-152.458 142.529,-160 167.258,-169.717 355.063,-165.641 381.529,-168 420.615,-171.484 464.376,-177.88 497.976,-183.33"/>
<polygon fill="#a07070" stroke="#a07070" points="497.626,-186.819 508.061,-184.987 498.761,-179.912 497.626,-186.819"/>
</g>
<!-- 65.208.228.223 80/tcp -->
<g id="node11" class="node"><title>65.208.228.223 80/tcp</title>
<polygon fill="red" stroke="black" points="477.696,-98.5442 477.696,-113.456 420.777,-124 340.28,-124 283.361,-113.456 283.361,-98.5442 340.28,-88 420.777,-88 477.696,-98.5442"/>
<text text-anchor="middle" x="380.529" y="-101.8" font-family="Times,serif" font-size="14.00">65.208.228.223 80/tcp</text>
</g>
<!-- 68.66.15.230 -->
<g id="node12" class="node"><title>68.66.15.230</title>
<ellipse fill="#86ffba" stroke="black" cx="208.529" cy="-106" rx="56.5701" ry="18"/>
<text text-anchor="middle" x="208.529" y="-101.8" font-family="Times,serif" font-size="14.00">68.66.15.230</text>
</g>
<!-- 4.69.203.254 -->
<g id="node16" class="node"><title>4.69.203.254</title>
<ellipse fill="#8660ff" stroke="black" cx="680.529" cy="-194" rx="56.5701" ry="18"/>
<text text-anchor="middle" x="680.529" y="-189.8" font-family="Times,serif" font-size="14.00">4.69.203.254</text>
</g>
<!-- 68.66.15.230&#45;&gt;4.69.203.254 -->
<g id="edge17" class="edge"><title>68.66.15.230&#45;&gt;4.69.203.254</title>
<path fill="none" stroke="#a07070" d="M223.198,-123.614C235.486,-136.216 254.236,-152.591 274.529,-160 310.025,-172.959 577.44,-160.759 614.529,-168 622.999,-169.654 631.805,-172.29 640.12,-175.243"/>
<polygon fill="#a07070" stroke="#a07070" points="639.015,-178.567 649.607,-178.815 641.482,-172.016 639.015,-178.567"/>
</g>
<!-- 4.69.132.62&#45;&gt;68.66.15.230 -->
<g id="edge16" class="edge"><title>4.69.132.62&#45;&gt;68.66.15.230</title>
<path fill="none" stroke="#a07070" d="M507.648,-185.443C473.063,-179.963 424.42,-172.715 381.529,-168 357.827,-165.395 296.71,-168.747 274.529,-160 258.155,-153.544 242.657,-141.528 230.798,-130.568"/>
<polygon fill="#a07070" stroke="#a07070" points="233.186,-128.009 223.558,-123.587 228.327,-133.048 233.186,-128.009"/>
</g>
<!-- 4.69.132.58 -->
<g id="node14" class="node"><title>4.69.132.58</title>
<ellipse fill="#8660ff" stroke="black" cx="868.529" cy="-106" rx="52.2268" ry="18"/>
<text text-anchor="middle" x="868.529" y="-101.8" font-family="Times,serif" font-size="14.00">4.69.132.58</text>
</g>
<!-- 4.69.151.182 -->
<g id="node15" class="node"><title>4.69.151.182</title>
<ellipse fill="#8660ff" stroke="black" cx="713.529" cy="-34" rx="56.5701" ry="18"/>
<text text-anchor="middle" x="713.529" y="-29.8" font-family="Times,serif" font-size="14.00">4.69.151.182</text>
</g>
<!-- 4.69.132.58&#45;&gt;4.69.151.182 -->
<g id="edge9" class="edge"><title>4.69.132.58&#45;&gt;4.69.151.182</title>
<path fill="none" stroke="#a07070" d="M838.275,-91.3371C814.265,-80.4937 780.471,-65.232 754.111,-53.3277"/>
<polygon fill="#a07070" stroke="#a07070" points="755.323,-50.0344 744.768,-49.1083 752.441,-56.414 755.323,-50.0344"/>
</g>
<!-- 4.69.151.182&#45;&gt;206.222.122.50 -->
<g id="edge10" class="edge"><title>4.69.151.182&#45;&gt;206.222.122.50</title>
<path fill="none" stroke="#a07070" d="M656.991,-34.3329C498.882,-33.0556 60.8756,-33.7598 17.5285,-80 -6.78847,-105.94 -4.51895,-132.105 17.5285,-160 26.6137,-171.495 56.918,-179.408 86.9211,-184.598"/>
<polygon fill="#a07070" stroke="#a07070" points="86.6197,-188.095 97.0535,-186.255 87.7493,-181.187 86.6197,-188.095"/>
</g>
<!-- 4.69.203.254&#45;&gt;65.208.228.223 80/tcp -->
<g id="edge18" class="edge"><title>4.69.203.254&#45;&gt;65.208.228.223 80/tcp</title>
<path fill="none" stroke="#a07070" d="M649.218,-178.955C638.434,-174.71 626.145,-170.512 614.529,-168 560.117,-156.232 543.352,-174.217 489.529,-160 464.009,-153.259 437.328,-140.399 416.751,-129.036"/>
<polygon fill="#a07070" stroke="#a07070" points="418.469,-125.986 408.041,-124.114 415.025,-132.08 418.469,-125.986"/>
</g>
<!-- 4.69.153.25&#45;&gt;4.69.132.58 -->
<g id="edge8" class="edge"><title>4.69.153.25&#45;&gt;4.69.132.58</title>
<path fill="none" stroke="#a07070" d="M917.767,-176.418C908.879,-163.888 896.525,-146.471 886.416,-132.218"/>
<polygon fill="#a07070" stroke="#a07070" points="889.102,-129.956 880.462,-123.824 883.393,-134.006 889.102,-129.956"/>
</g>
<!-- 4.69.152.190 -->
<g id="node19" class="node"><title>4.69.152.190</title>
<ellipse fill="#8660ff" stroke="black" cx="680.529" cy="-106" rx="56.5701" ry="18"/>
<text text-anchor="middle" x="680.529" y="-101.8" font-family="Times,serif" font-size="14.00">4.69.152.190</text>
</g>
<!-- 4.68.71.102&#45;&gt;4.69.152.190 -->
<g id="edge12" class="edge"><title>4.68.71.102&#45;&gt;4.69.152.190</title>
<path fill="none" stroke="#a07070" d="M784.823,-177.625C764.542,-163.891 734.632,-143.637 712.037,-128.336"/>
<polygon fill="#a07070" stroke="#a07070" points="713.708,-125.241 703.465,-122.532 709.783,-131.037 713.708,-125.241"/>
</g>
<!-- 4.69.152.190&#45;&gt;207.250.67.110 -->
<g id="edge13" class="edge"><title>4.69.152.190&#45;&gt;207.250.67.110</title>
<path fill="none" stroke="#a07070" d="M641.297,-119.054C602.877,-130.58 542.547,-147.944 489.529,-160 450.295,-168.922 405.928,-176.906 370.479,-182.786"/>
<polygon fill="#a07070" stroke="#a07070" points="369.557,-179.39 360.256,-184.464 370.691,-186.298 369.557,-179.39"/>
</g>
</g>
</svg>
