<?xml version="1.0" encoding="UTF-8" standalone="no"?>
<!DOCTYPE svg PUBLIC "-//W3C//DTD SVG 1.1//EN"
 "http://www.w3.org/Graphics/SVG/1.1/DTD/svg11.dtd">
<!-- Generated by graphviz version 2.38.0 (20140413.2041)
 -->
<!-- Title: trace Pages: 1 -->
<svg width="728pt" height="1235pt"
 viewBox="0.00 0.00 728.00 1235.00" xmlns="http://www.w3.org/2000/svg" xmlns:xlink="http://www.w3.org/1999/xlink">
<g id="graph0" class="graph" transform="scale(1 1) rotate(0) translate(4 1231)">
<title>trace</title>
<polygon fill="white" stroke="none" points="-4,4 -4,-1231 724,-1231 724,4 -4,4"/>
<g id="clust1" class="cluster"><title>cluster_54113</title>
<polygon fill="none" stroke="#608686" points="302,-570 302,-651 488,-651 488,-570 302,-570"/>
<text text-anchor="middle" x="395" y="-639" font-family="Times,serif" font-size="10.00">54113</text>
<text text-anchor="middle" x="395" y="-629" font-family="Times,serif" font-size="10.00">[FASTLY &#45; Fastly,US]</text>
</g>
<g id="clust2" class="cluster"><title>cluster_132132</title>
<polygon fill="none" stroke="#60baba" points="115,-891 115,-1043 335,-1043 335,-891 115,-891"/>
<text text-anchor="middle" x="225" y="-1031" font-family="Times,serif" font-size="10.00">132132</text>
<text text-anchor="middle" x="225" y="-1021" font-family="Times,serif" font-size="10.00">[REPUBLICTELECOM&#45;SG MyRepublic Ltd.,SG]</text>
</g>
<g id="clust3" class="cluster"><title>cluster_36459</title>
<polygon fill="none" stroke="#60ffff" points="385,-232 385,-313 712,-313 712,-232 385,-232"/>
<text text-anchor="middle" x="548.5" y="-301" font-family="Times,serif" font-size="10.00">36459</text>
<text text-anchor="middle" x="548.5" y="-291" font-family="Times,serif" font-size="10.00">[GITHUB &#45; GitHub, Inc.,US]</text>
</g>
<g id="clust4" class="cluster"><title>cluster_56300</title>
<polygon fill="none" stroke="#868660" points="129,-1051 129,-1131 321,-1131 321,-1051 129,-1051"/>
<text text-anchor="middle" x="225" y="-1119" font-family="Times,serif" font-size="10.00">56300</text>
<text text-anchor="middle" x="225" y="-1109" font-family="Times,serif" font-size="10.00">[MYHOSTING&#45;AS&#45;AP MYHOSTING,SG]</text>
</g>
<g id="clust5" class="cluster"><title>cluster_174</title>
<polygon fill="none" stroke="#86ba86" points="12,-410 12,-562 215,-562 215,-410 12,-410"/>
<text text-anchor="middle" x="113.5" y="-550" font-family="Times,serif" font-size="10.00">174</text>
<text text-anchor="middle" x="113.5" y="-540" font-family="Times,serif" font-size="10.00">[COGENT&#45;174 &#45; Cogent Communications,US]</text>
</g>
<g id="clust6" class="cluster"><title>cluster_1299</title>
<polygon fill="none" stroke="#86ffba" points="8,-570.5 8,-883 294,-883 294,-570.5 8,-570.5"/>
<text text-anchor="middle" x="151" y="-871" font-family="Times,serif" font-size="10.00">1299</text>
<text text-anchor="middle" x="151" y="-861" font-family="Times,serif" font-size="10.00">[TELIANET TeliaSonera AB,SE]</text>
</g>
<g id="clust7" class="cluster"><title>cluster_4565</title>
<polygon fill="none" stroke="#8660ff" points="115,-1139 115,-1219 335,-1219 335,-1139 115,-1139"/>
<text text-anchor="middle" x="225" y="-1207" font-family="Times,serif" font-size="10.00">4565</text>
<text text-anchor="middle" x="225" y="-1197" font-family="Times,serif" font-size="10.00">[MEGAPATH2&#45;US &#45; MegaPath Networks Inc.,US]</text>
</g>
<g id="clust8" class="cluster"><title>cluster_29014</title>
<polygon fill="none" stroke="#baba60" points="12,-321 12,-402 323,-402 323,-321 12,-321"/>
<text text-anchor="middle" x="167.5" y="-390" font-family="Times,serif" font-size="10.00">29014</text>
<text text-anchor="middle" x="167.5" y="-380" font-family="Times,serif" font-size="10.00">[SCALEUP ScaleUp Technologies GmbH &amp; Co. KG,DE]</text>
</g>
<g id="clust9" class="cluster"><title>cluster_3257</title>
<polygon fill="none" stroke="#baff86" points="417,-659 417,-883 585,-883 585,-659 417,-659"/>
<text text-anchor="middle" x="501" y="-871" font-family="Times,serif" font-size="10.00">3257</text>
<text text-anchor="middle" x="501" y="-861" font-family="Times,serif" font-size="10.00">[TINET&#45;BACKBONE Tinet SpA,DE]</text>
</g>
<g id="clust10" class="cluster"><title>cluster_3356</title>
<polygon fill="none" stroke="#ba60ba" points="483,-8 483,-88 687,-88 687,-8 483,-8"/>
<text text-anchor="middle" x="585" y="-76" font-family="Times,serif" font-size="10.00">3356</text>
<text text-anchor="middle" x="585" y="-66" font-family="Times,serif" font-size="10.00">[LEVEL3 &#45; Level 3 Communications, Inc.,US]</text>
</g>
<!-- 103.245.222.223 -->
<g id="node1" class="node"><title>103.245.222.223</title>
<polygon fill="green" stroke="black" points="310.162,-578.5 310.162,-614.5 479.838,-614.5 479.838,-578.5 310.162,-578.5"/>
<text text-anchor="middle" x="365.412" y="-592.3" font-family="Times,serif" font-size="14.00">103.245.222.223</text>
<polyline fill="none" stroke="black" points="420.662,-578.5 420.662,-614.5 "/>
<text text-anchor="middle" x="450.25" y="-592.3" font-family="Times,serif" font-size="14.00">http SA</text>
</g>
<!-- 103.6.148.45 -->
<g id="node2" class="node"><title>103.6.148.45</title>
<ellipse fill="#60baba" stroke="black" cx="225" cy="-917" rx="56.5701" ry="18"/>
<text text-anchor="middle" x="225" y="-912.8" font-family="Times,serif" font-size="14.00">103.6.148.45</text>
</g>
<!-- 213.248.72.21 -->
<g id="node12" class="node"><title>213.248.72.21</title>
<ellipse fill="#86ffba" stroke="black" cx="225" cy="-829" rx="60.9135" ry="18"/>
<text text-anchor="middle" x="225" y="-824.8" font-family="Times,serif" font-size="14.00">213.248.72.21</text>
</g>
<!-- 103.6.148.45&#45;&gt;213.248.72.21 -->
<g id="edge19" class="edge"><title>103.6.148.45&#45;&gt;213.248.72.21</title>
<path fill="none" stroke="#a04040" d="M219.496,-899.009C218.184,-887.112 217.908,-870.961 218.668,-857.275"/>
<polygon fill="#a04040" stroke="#a04040" points="222.185,-857.204 219.5,-846.956 215.208,-856.642 222.185,-857.204"/>
</g>
<!-- 103.6.148.45&#45;&gt;213.248.72.21 -->
<g id="edge26" class="edge"><title>103.6.148.45&#45;&gt;213.248.72.21</title>
<path fill="none" stroke="#a02020" d="M230.504,-899.009C231.816,-887.112 232.092,-870.961 231.332,-857.275"/>
<polygon fill="#a02020" stroke="#a02020" points="234.792,-856.642 230.5,-846.956 227.815,-857.204 234.792,-856.642"/>
</g>
<!-- 183.182.80.69 -->
<g id="node17" class="node"><title>183.182.80.69</title>
<ellipse fill="#baff86" stroke="black" cx="488" cy="-829" rx="60.9135" ry="18"/>
<text text-anchor="middle" x="488" y="-824.8" font-family="Times,serif" font-size="14.00">183.182.80.69</text>
</g>
<!-- 103.6.148.45&#45;&gt;183.182.80.69 -->
<g id="edge4" class="edge"><title>103.6.148.45&#45;&gt;183.182.80.69</title>
<path fill="none" stroke="#a07070" d="M262.962,-903.587C309.371,-888.411 388.009,-862.697 438.959,-846.036"/>
<polygon fill="#a07070" stroke="#a07070" points="440.345,-849.266 448.762,-842.831 438.169,-842.612 440.345,-849.266"/>
</g>
<!-- 103.6.148.46 -->
<g id="node3" class="node"><title>103.6.148.46</title>
<ellipse fill="#60baba" stroke="black" cx="225" cy="-989" rx="56.5701" ry="18"/>
<text text-anchor="middle" x="225" y="-984.8" font-family="Times,serif" font-size="14.00">103.6.148.46</text>
</g>
<!-- 103.6.148.46&#45;&gt;103.6.148.45 -->
<g id="edge3" class="edge"><title>103.6.148.46&#45;&gt;103.6.148.45</title>
<path fill="none" stroke="#a07070" d="M213.244,-971.055C211.565,-963.145 211.098,-953.54 211.844,-944.688"/>
<polygon fill="#a07070" stroke="#a07070" points="215.308,-945.187 213.277,-934.789 208.381,-944.185 215.308,-945.187"/>
</g>
<!-- 103.6.148.46&#45;&gt;103.6.148.45 -->
<g id="edge18" class="edge"><title>103.6.148.46&#45;&gt;103.6.148.45</title>
<path fill="none" stroke="#a04040" d="M225,-970.697C225,-962.983 225,-953.712 225,-945.112"/>
<polygon fill="#a04040" stroke="#a04040" points="228.5,-945.104 225,-935.104 221.5,-945.104 228.5,-945.104"/>
</g>
<!-- 103.6.148.46&#45;&gt;103.6.148.45 -->
<g id="edge25" class="edge"><title>103.6.148.46&#45;&gt;103.6.148.45</title>
<path fill="none" stroke="#a02020" d="M236.756,-971.055C238.435,-963.145 238.902,-953.54 238.156,-944.688"/>
<polygon fill="#a02020" stroke="#a02020" points="241.619,-944.185 236.723,-934.789 234.692,-945.187 241.619,-944.185"/>
</g>
<!-- 192.30.252.205 -->
<g id="node4" class="node"><title>192.30.252.205</title>
<ellipse fill="#60ffff" stroke="black" cx="639" cy="-258.5" rx="65.2572" ry="18"/>
<text text-anchor="middle" x="639" y="-254.3" font-family="Times,serif" font-size="14.00">192.30.252.205</text>
</g>
<!-- 192.30.252.129 -->
<g id="node5" class="node"><title>192.30.252.129</title>
<polygon fill="green" stroke="black" points="392.662,-240.5 392.662,-276.5 555.338,-276.5 555.338,-240.5 392.662,-240.5"/>
<text text-anchor="middle" x="444.412" y="-254.3" font-family="Times,serif" font-size="14.00">192.30.252.129</text>
<polyline fill="none" stroke="black" points="496.162,-240.5 496.162,-276.5 "/>
<text text-anchor="middle" x="525.75" y="-254.3" font-family="Times,serif" font-size="14.00">http SA</text>
</g>
<!-- unk4 -->
<g id="node25" class="node"><title>unk4</title>
<ellipse fill="none" stroke="black" cx="549" cy="-186" rx="27.589" ry="18"/>
<text text-anchor="middle" x="549" y="-181.8" font-family="Times,serif" font-size="14.00">unk4</text>
</g>
<!-- 192.30.252.129&#45;&gt;unk4 -->
<g id="edge12" class="edge"><title>192.30.252.129:T80&#45;&gt;unk4</title>
<path fill="none" stroke="#a07070" d="M526,-239.5C526,-229.956 529.228,-220.195 533.266,-211.719"/>
<polygon fill="#a07070" stroke="#a07070" points="536.418,-213.245 538.039,-202.775 530.243,-209.949 536.418,-213.245"/>
</g>
<!-- 103.224.165.1 -->
<g id="node6" class="node"><title>103.224.165.1</title>
<ellipse fill="#868660" stroke="black" cx="225" cy="-1077" rx="60.9135" ry="18"/>
<text text-anchor="middle" x="225" y="-1072.8" font-family="Times,serif" font-size="14.00">103.224.165.1</text>
</g>
<!-- 103.224.165.1&#45;&gt;103.6.148.46 -->
<g id="edge2" class="edge"><title>103.224.165.1&#45;&gt;103.6.148.46</title>
<path fill="none" stroke="#a07070" d="M213.993,-1059.01C211.325,-1046.92 210.799,-1030.43 212.413,-1016.6"/>
<polygon fill="#a07070" stroke="#a07070" points="215.878,-1017.1 214.066,-1006.66 208.973,-1015.95 215.878,-1017.1"/>
</g>
<!-- 103.224.165.1&#45;&gt;103.6.148.46 -->
<g id="edge17" class="edge"><title>103.224.165.1&#45;&gt;103.6.148.46</title>
<path fill="none" stroke="#a04040" d="M225,-1058.6C225,-1046.75 225,-1030.82 225,-1017.29"/>
<polygon fill="#a04040" stroke="#a04040" points="228.5,-1017.08 225,-1007.08 221.5,-1017.08 228.5,-1017.08"/>
</g>
<!-- 103.224.165.1&#45;&gt;103.6.148.46 -->
<g id="edge24" class="edge"><title>103.224.165.1&#45;&gt;103.6.148.46</title>
<path fill="none" stroke="#a02020" d="M236.007,-1059.01C238.675,-1046.92 239.201,-1030.43 237.587,-1016.6"/>
<polygon fill="#a02020" stroke="#a02020" points="241.027,-1015.95 235.934,-1006.66 234.122,-1017.1 241.027,-1015.95"/>
</g>
<!-- 149.6.170.91 -->
<g id="node7" class="node"><title>149.6.170.91</title>
<ellipse fill="#86ba86" stroke="black" cx="81" cy="-508" rx="56.5701" ry="18"/>
<text text-anchor="middle" x="81" y="-503.8" font-family="Times,serif" font-size="14.00">149.6.170.91</text>
</g>
<!-- 149.6.170.90 -->
<g id="node8" class="node"><title>149.6.170.90</title>
<ellipse fill="#86ba86" stroke="black" cx="81" cy="-436" rx="56.5701" ry="18"/>
<text text-anchor="middle" x="81" y="-431.8" font-family="Times,serif" font-size="14.00">149.6.170.90</text>
</g>
<!-- 149.6.170.91&#45;&gt;149.6.170.90 -->
<g id="edge31" class="edge"><title>149.6.170.91&#45;&gt;149.6.170.90</title>
<path fill="none" stroke="#a02020" d="M81,-489.697C81,-481.983 81,-472.712 81,-464.112"/>
<polygon fill="#a02020" stroke="#a02020" points="84.5001,-464.104 81,-454.104 77.5001,-464.104 84.5001,-464.104"/>
</g>
<!-- 93.92.131.110 -->
<g id="node16" class="node"><title>93.92.131.110</title>
<ellipse fill="#baba60" stroke="black" cx="81" cy="-347.5" rx="60.7661" ry="18"/>
<text text-anchor="middle" x="81" y="-343.3" font-family="Times,serif" font-size="14.00">93.92.131.110</text>
</g>
<!-- 149.6.170.90&#45;&gt;93.92.131.110 -->
<g id="edge32" class="edge"><title>149.6.170.90&#45;&gt;93.92.131.110</title>
<path fill="none" stroke="#a02020" d="M81,-417.91C81,-405.945 81,-389.699 81,-375.933"/>
<polygon fill="#a02020" stroke="#a02020" points="84.5001,-375.554 81,-365.554 77.5001,-375.554 84.5001,-375.554"/>
</g>
<!-- 62.115.112.154 -->
<g id="node9" class="node"><title>62.115.112.154</title>
<ellipse fill="#86ffba" stroke="black" cx="81" cy="-596.5" rx="64.9624" ry="18"/>
<text text-anchor="middle" x="81" y="-592.3" font-family="Times,serif" font-size="14.00">62.115.112.154</text>
</g>
<!-- 62.115.112.154&#45;&gt;149.6.170.91 -->
<g id="edge30" class="edge"><title>62.115.112.154&#45;&gt;149.6.170.91</title>
<path fill="none" stroke="#a02020" d="M81,-578.41C81,-566.445 81,-550.199 81,-536.433"/>
<polygon fill="#a02020" stroke="#a02020" points="84.5001,-536.054 81,-526.054 77.5001,-536.054 84.5001,-536.054"/>
</g>
<!-- 62.115.134.41 -->
<g id="node10" class="node"><title>62.115.134.41</title>
<ellipse fill="#86ffba" stroke="black" cx="225" cy="-757" rx="60.7661" ry="18"/>
<text text-anchor="middle" x="225" y="-752.8" font-family="Times,serif" font-size="14.00">62.115.134.41</text>
</g>
<!-- unk6 -->
<g id="node27" class="node"><title>unk6</title>
<ellipse fill="none" stroke="black" cx="343" cy="-685" rx="27.589" ry="18"/>
<text text-anchor="middle" x="343" y="-680.8" font-family="Times,serif" font-size="14.00">unk6</text>
</g>
<!-- 62.115.134.41&#45;&gt;unk6 -->
<g id="edge21" class="edge"><title>62.115.134.41&#45;&gt;unk6</title>
<path fill="none" stroke="#a04040" d="M250.896,-740.638C269.637,-729.52 294.968,-714.494 314.321,-703.013"/>
<polygon fill="#a04040" stroke="#a04040" points="316.201,-705.967 323.016,-697.855 312.63,-699.947 316.201,-705.967"/>
</g>
<!-- 62.115.134.128 -->
<g id="node11" class="node"><title>62.115.134.128</title>
<ellipse fill="#86ffba" stroke="black" cx="81" cy="-757" rx="65.1093" ry="18"/>
<text text-anchor="middle" x="81" y="-752.8" font-family="Times,serif" font-size="14.00">62.115.134.128</text>
</g>
<!-- 62.115.139.57 -->
<g id="node13" class="node"><title>62.115.139.57</title>
<ellipse fill="#86ffba" stroke="black" cx="81" cy="-685" rx="60.7661" ry="18"/>
<text text-anchor="middle" x="81" y="-680.8" font-family="Times,serif" font-size="14.00">62.115.139.57</text>
</g>
<!-- 62.115.134.128&#45;&gt;62.115.139.57 -->
<g id="edge28" class="edge"><title>62.115.134.128&#45;&gt;62.115.139.57</title>
<path fill="none" stroke="#a02020" d="M81,-738.697C81,-730.983 81,-721.712 81,-713.112"/>
<polygon fill="#a02020" stroke="#a02020" points="84.5001,-713.104 81,-703.104 77.5001,-713.104 84.5001,-713.104"/>
</g>
<!-- 213.248.72.21&#45;&gt;62.115.134.41 -->
<g id="edge20" class="edge"><title>213.248.72.21&#45;&gt;62.115.134.41</title>
<path fill="none" stroke="#a04040" d="M225,-810.697C225,-802.983 225,-793.712 225,-785.112"/>
<polygon fill="#a04040" stroke="#a04040" points="228.5,-785.104 225,-775.104 221.5,-785.104 228.5,-785.104"/>
</g>
<!-- 213.248.72.21&#45;&gt;62.115.134.128 -->
<g id="edge27" class="edge"><title>213.248.72.21&#45;&gt;62.115.134.128</title>
<path fill="none" stroke="#a02020" d="M194.813,-813.326C173.357,-802.896 144.321,-788.781 120.947,-777.419"/>
<polygon fill="#a02020" stroke="#a02020" points="122.167,-774.12 111.643,-772.896 119.107,-780.416 122.167,-774.12"/>
</g>
<!-- 62.115.139.57&#45;&gt;62.115.112.154 -->
<g id="edge29" class="edge"><title>62.115.139.57&#45;&gt;62.115.112.154</title>
<path fill="none" stroke="#a02020" d="M81,-666.91C81,-654.945 81,-638.699 81,-624.933"/>
<polygon fill="#a02020" stroke="#a02020" points="84.5001,-624.554 81,-614.554 77.5001,-624.554 84.5001,-624.554"/>
</g>
<!-- 192.168.1.1 -->
<g id="node14" class="node"><title>192.168.1.1</title>
<ellipse fill="#8660ff" stroke="black" cx="225" cy="-1165" rx="52.2268" ry="18"/>
<text text-anchor="middle" x="225" y="-1160.8" font-family="Times,serif" font-size="14.00">192.168.1.1</text>
</g>
<!-- 192.168.1.1&#45;&gt;103.224.165.1 -->
<g id="edge1" class="edge"><title>192.168.1.1&#45;&gt;103.224.165.1</title>
<path fill="none" stroke="#a07070" d="M213.993,-1147.01C211.342,-1134.99 210.805,-1118.64 212.382,-1104.87"/>
<polygon fill="#a07070" stroke="#a07070" points="215.844,-1105.39 214,-1094.96 208.935,-1104.26 215.844,-1105.39"/>
</g>
<!-- 192.168.1.1&#45;&gt;103.224.165.1 -->
<g id="edge16" class="edge"><title>192.168.1.1&#45;&gt;103.224.165.1</title>
<path fill="none" stroke="#a04040" d="M225,-1146.6C225,-1134.75 225,-1118.82 225,-1105.29"/>
<polygon fill="#a04040" stroke="#a04040" points="228.5,-1105.08 225,-1095.08 221.5,-1105.08 228.5,-1105.08"/>
</g>
<!-- 192.168.1.1&#45;&gt;103.224.165.1 -->
<g id="edge23" class="edge"><title>192.168.1.1&#45;&gt;103.224.165.1</title>
<path fill="none" stroke="#a02020" d="M236.007,-1147.01C238.658,-1134.99 239.195,-1118.64 237.618,-1104.87"/>
<polygon fill="#a02020" stroke="#a02020" points="241.065,-1104.26 236,-1094.96 234.156,-1105.39 241.065,-1104.26"/>
</g>
<!-- 81.28.232.189 -->
<g id="node15" class="node"><title>81.28.232.189</title>
<polygon fill="green" stroke="black" points="159.162,-329.5 159.162,-365.5 314.838,-365.5 314.838,-329.5 159.162,-329.5"/>
<text text-anchor="middle" x="207.412" y="-343.3" font-family="Times,serif" font-size="14.00">81.28.232.189</text>
<polyline fill="none" stroke="black" points="255.662,-329.5 255.662,-365.5 "/>
<text text-anchor="middle" x="285.25" y="-343.3" font-family="Times,serif" font-size="14.00">http SA</text>
</g>
<!-- unk7 -->
<g id="node28" class="node"><title>unk7</title>
<ellipse fill="none" stroke="black" cx="183" cy="-258.5" rx="27.589" ry="18"/>
<text text-anchor="middle" x="183" y="-254.3" font-family="Times,serif" font-size="14.00">unk7</text>
</g>
<!-- 93.92.131.110&#45;&gt;unk7 -->
<g id="edge33" class="edge"><title>93.92.131.110&#45;&gt;unk7</title>
<path fill="none" stroke="#a02020" d="M100.185,-330.136C116.9,-315.879 141.206,-295.148 159.166,-279.829"/>
<polygon fill="#a02020" stroke="#a02020" points="161.583,-282.367 166.92,-273.215 157.041,-277.041 161.583,-282.367"/>
</g>
<!-- 141.136.109.21 -->
<g id="node19" class="node"><title>141.136.109.21</title>
<ellipse fill="#baff86" stroke="black" cx="501" cy="-757" rx="65.2572" ry="18"/>
<text text-anchor="middle" x="501" y="-752.8" font-family="Times,serif" font-size="14.00">141.136.109.21</text>
</g>
<!-- 183.182.80.69&#45;&gt;141.136.109.21 -->
<g id="edge5" class="edge"><title>183.182.80.69&#45;&gt;141.136.109.21</title>
<path fill="none" stroke="#a07070" d="M491.213,-810.697C492.646,-802.983 494.368,-793.712 495.965,-785.112"/>
<polygon fill="#a07070" stroke="#a07070" points="499.439,-785.575 497.823,-775.104 492.556,-784.297 499.439,-785.575"/>
</g>
<!-- 77.67.69.98 -->
<g id="node18" class="node"><title>77.67.69.98</title>
<ellipse fill="#baff86" stroke="black" cx="513" cy="-685" rx="52.2268" ry="18"/>
<text text-anchor="middle" x="513" y="-680.8" font-family="Times,serif" font-size="14.00">77.67.69.98</text>
</g>
<!-- unk0 -->
<g id="node21" class="node"><title>unk0</title>
<ellipse fill="none" stroke="black" cx="526" cy="-596.5" rx="27.589" ry="18"/>
<text text-anchor="middle" x="526" y="-592.3" font-family="Times,serif" font-size="14.00">unk0</text>
</g>
<!-- 77.67.69.98&#45;&gt;unk0 -->
<g id="edge7" class="edge"><title>77.67.69.98&#45;&gt;unk0</title>
<path fill="none" stroke="#a07070" d="M515.568,-666.91C517.385,-654.826 519.857,-638.377 521.938,-624.525"/>
<polygon fill="#a07070" stroke="#a07070" points="525.412,-624.963 523.437,-614.554 518.49,-623.923 525.412,-624.963"/>
</g>
<!-- 141.136.109.21&#45;&gt;77.67.69.98 -->
<g id="edge6" class="edge"><title>141.136.109.21&#45;&gt;77.67.69.98</title>
<path fill="none" stroke="#a07070" d="M503.966,-738.697C505.289,-730.983 506.878,-721.712 508.352,-713.112"/>
<polygon fill="#a07070" stroke="#a07070" points="511.828,-713.552 510.068,-703.104 504.928,-712.369 511.828,-713.552"/>
</g>
<!-- 4.53.116.102 -->
<g id="node20" class="node"><title>4.53.116.102</title>
<ellipse fill="#ba60ba" stroke="black" cx="585" cy="-34" rx="56.4231" ry="18"/>
<text text-anchor="middle" x="585" y="-29.8" font-family="Times,serif" font-size="14.00">4.53.116.102</text>
</g>
<!-- 4.53.116.102&#45;&gt;192.30.252.205 -->
<g id="edge15" class="edge"><title>4.53.116.102&#45;&gt;192.30.252.205</title>
<path fill="none" stroke="#a07070" d="M589.162,-52.148C598.5,-90.6269 621.186,-184.098 632.442,-230.478"/>
<polygon fill="#a07070" stroke="#a07070" points="629.093,-231.518 634.852,-240.41 635.895,-229.867 629.093,-231.518"/>
</g>
<!-- unk1 -->
<g id="node22" class="node"><title>unk1</title>
<ellipse fill="none" stroke="black" cx="526" cy="-508" rx="27.589" ry="18"/>
<text text-anchor="middle" x="526" y="-503.8" font-family="Times,serif" font-size="14.00">unk1</text>
</g>
<!-- unk0&#45;&gt;unk1 -->
<g id="edge8" class="edge"><title>unk0&#45;&gt;unk1</title>
<path fill="none" stroke="#a07070" d="M526,-578.41C526,-566.445 526,-550.199 526,-536.433"/>
<polygon fill="#a07070" stroke="#a07070" points="529.5,-536.054 526,-526.054 522.5,-536.054 529.5,-536.054"/>
</g>
<!-- unk2 -->
<g id="node23" class="node"><title>unk2</title>
<ellipse fill="none" stroke="black" cx="526" cy="-436" rx="27.589" ry="18"/>
<text text-anchor="middle" x="526" y="-431.8" font-family="Times,serif" font-size="14.00">unk2</text>
</g>
<!-- unk1&#45;&gt;unk2 -->
<g id="edge9" class="edge"><title>unk1&#45;&gt;unk2</title>
<path fill="none" stroke="#a07070" d="M526,-489.697C526,-481.983 526,-472.712 526,-464.112"/>
<polygon fill="#a07070" stroke="#a07070" points="529.5,-464.104 526,-454.104 522.5,-464.104 529.5,-464.104"/>
</g>
<!-- unk3 -->
<g id="node24" class="node"><title>unk3</title>
<ellipse fill="none" stroke="black" cx="526" cy="-347.5" rx="27.589" ry="18"/>
<text text-anchor="middle" x="526" y="-343.3" font-family="Times,serif" font-size="14.00">unk3</text>
</g>
<!-- unk2&#45;&gt;unk3 -->
<g id="edge10" class="edge"><title>unk2&#45;&gt;unk3</title>
<path fill="none" stroke="#a07070" d="M526,-417.91C526,-405.945 526,-389.699 526,-375.933"/>
<polygon fill="#a07070" stroke="#a07070" points="529.5,-375.554 526,-365.554 522.5,-375.554 529.5,-375.554"/>
</g>
<!-- unk3&#45;&gt;192.30.252.129 -->
<g id="edge11" class="edge"><title>unk3&#45;&gt;192.30.252.129:T80</title>
<path fill="none" stroke="#a07070" d="M526,-329.486C526,-318.139 526,-302.616 526,-287.684"/>
<polygon fill="#a07070" stroke="#a07070" points="529.5,-287.5 526,-277.5 522.5,-287.5 529.5,-287.5"/>
</g>
<!-- unk5 -->
<g id="node26" class="node"><title>unk5</title>
<ellipse fill="none" stroke="black" cx="557" cy="-114" rx="27.589" ry="18"/>
<text text-anchor="middle" x="557" y="-109.8" font-family="Times,serif" font-size="14.00">unk5</text>
</g>
<!-- unk4&#45;&gt;unk5 -->
<g id="edge13" class="edge"><title>unk4&#45;&gt;unk5</title>
<path fill="none" stroke="#a07070" d="M550.978,-167.697C551.859,-159.983 552.919,-150.712 553.901,-142.112"/>
<polygon fill="#a07070" stroke="#a07070" points="557.387,-142.437 555.045,-132.104 550.432,-141.642 557.387,-142.437"/>
</g>
<!-- unk5&#45;&gt;4.53.116.102 -->
<g id="edge14" class="edge"><title>unk5&#45;&gt;4.53.116.102</title>
<path fill="none" stroke="#a07070" d="M563.076,-96.0752C566.683,-86.0254 571.338,-73.0597 575.429,-61.6615"/>
<polygon fill="#a07070" stroke="#a07070" points="578.755,-62.7557 578.84,-52.1612 572.167,-60.3906 578.755,-62.7557"/>
</g>
<!-- unk6&#45;&gt;103.245.222.223 -->
<g id="edge22" class="edge"><title>unk6&#45;&gt;103.245.222.223:T80</title>
<path fill="none" stroke="#a04040" d="M365.954,-674.608C392.482,-663.134 434.077,-643.036 446.428,-625.144"/>
<polygon fill="#a04040" stroke="#a04040" points="449.809,-626.093 450,-615.5 443.245,-623.662 449.809,-626.093"/>
</g>
<!-- unk7&#45;&gt;81.28.232.189 -->
<g id="edge34" class="edge"><title>unk7&#45;&gt;81.28.232.189:T80</title>
<path fill="none" stroke="#a02020" d="M209.003,-265.106C236.272,-272.525 276.208,-288.318 283.747,-318.27"/>
<polygon fill="#a02020" stroke="#a02020" points="280.31,-319 285,-328.5 287.259,-318.149 280.31,-319"/>
</g>
</g>
</svg>
